<mxfile host="www.draw.io" modified="2019-11-21T10:14:30.181Z" agent="Mozilla/5.0 (Macintosh; Intel Mac OS X 10_14_6) AppleWebKit/537.36 (KHTML, like Gecko) Chrome/78.0.3904.70 Safari/537.36" etag="uSSIHAiRWlVxVZAb8uZn" version="12.2.7" type="github" pages="1">
  <diagram id="Jv8w-vEdLFUHrgI2ODZ2" name="Page-1">
    <mxGraphModel dx="786" dy="416" grid="1" gridSize="10" guides="1" tooltips="1" connect="1" arrows="1" fold="1" page="1" pageScale="1" pageWidth="850" pageHeight="1100" math="0" shadow="0">
      <root>
        <mxCell id="0"/>
        <mxCell id="1" parent="0"/>
        <mxCell id="ZbQI2vLbvfMcdadeeipM-1" value="Web" style="ellipse;whiteSpace=wrap;html=1;" vertex="1" parent="1">
          <mxGeometry x="150" y="210" width="100" height="50" as="geometry"/>
        </mxCell>
        <mxCell id="ZbQI2vLbvfMcdadeeipM-2" value="Kong" style="rounded=1;whiteSpace=wrap;html=1;fillColor=#d5e8d4;strokeColor=#82b366;" vertex="1" parent="1">
          <mxGeometry x="160" y="300" width="80" height="40" as="geometry"/>
        </mxCell>
        <mxCell id="ZbQI2vLbvfMcdadeeipM-3" value="Server" style="rounded=1;whiteSpace=wrap;html=1;fillColor=#60a917;strokeColor=#2D7600;fontColor=#ffffff;" vertex="1" parent="1">
          <mxGeometry x="160" y="370" width="80" height="40" as="geometry"/>
        </mxCell>
        <mxCell id="ZbQI2vLbvfMcdadeeipM-4" value="Kafka" style="ellipse;whiteSpace=wrap;html=1;" vertex="1" parent="1">
          <mxGeometry x="280" y="295" width="100" height="50" as="geometry"/>
        </mxCell>
        <mxCell id="ZbQI2vLbvfMcdadeeipM-5" value="" style="endArrow=classic;startArrow=classic;html=1;entryX=0.5;entryY=1;entryDx=0;entryDy=0;" edge="1" parent="1" source="ZbQI2vLbvfMcdadeeipM-2" target="ZbQI2vLbvfMcdadeeipM-1">
          <mxGeometry width="50" height="50" relative="1" as="geometry">
            <mxPoint x="180" y="310" as="sourcePoint"/>
            <mxPoint x="230" y="260" as="targetPoint"/>
          </mxGeometry>
        </mxCell>
        <mxCell id="ZbQI2vLbvfMcdadeeipM-6" value="收集" style="endArrow=classic;html=1;exitX=1;exitY=0.5;exitDx=0;exitDy=0;entryX=0;entryY=0.5;entryDx=0;entryDy=0;" edge="1" parent="1" source="ZbQI2vLbvfMcdadeeipM-2" target="ZbQI2vLbvfMcdadeeipM-4">
          <mxGeometry width="50" height="50" relative="1" as="geometry">
            <mxPoint x="230" y="380" as="sourcePoint"/>
            <mxPoint x="280" y="330" as="targetPoint"/>
          </mxGeometry>
        </mxCell>
        <mxCell id="ZbQI2vLbvfMcdadeeipM-7" value="" style="endArrow=classic;startArrow=classic;html=1;entryX=0.5;entryY=1;entryDx=0;entryDy=0;exitX=0.5;exitY=0;exitDx=0;exitDy=0;" edge="1" parent="1" source="ZbQI2vLbvfMcdadeeipM-3" target="ZbQI2vLbvfMcdadeeipM-2">
          <mxGeometry width="50" height="50" relative="1" as="geometry">
            <mxPoint x="190" y="380" as="sourcePoint"/>
            <mxPoint x="240" y="330" as="targetPoint"/>
          </mxGeometry>
        </mxCell>
        <mxCell id="ZbQI2vLbvfMcdadeeipM-8" value="Recorder" style="rounded=1;whiteSpace=wrap;html=1;fillColor=#d5e8d4;strokeColor=#82b366;" vertex="1" parent="1">
          <mxGeometry x="400" y="305" width="70" height="40" as="geometry"/>
        </mxCell>
        <mxCell id="ZbQI2vLbvfMcdadeeipM-9" value="" style="endArrow=classic;html=1;exitX=1;exitY=0;exitDx=0;exitDy=0;entryX=0;entryY=0.5;entryDx=0;entryDy=0;" edge="1" parent="1" source="ZbQI2vLbvfMcdadeeipM-4" target="ZbQI2vLbvfMcdadeeipM-27">
          <mxGeometry width="50" height="50" relative="1" as="geometry">
            <mxPoint x="350" y="420" as="sourcePoint"/>
            <mxPoint x="400" y="370" as="targetPoint"/>
          </mxGeometry>
        </mxCell>
        <mxCell id="ZbQI2vLbvfMcdadeeipM-10" value="Test Case DB" style="shape=cylinder;whiteSpace=wrap;html=1;boundedLbl=1;backgroundOutline=1;" vertex="1" parent="1">
          <mxGeometry x="402" y="380" width="68" height="40" as="geometry"/>
        </mxCell>
        <mxCell id="ZbQI2vLbvfMcdadeeipM-11" value="录制 Test Case" style="endArrow=classic;html=1;exitX=0.5;exitY=1;exitDx=0;exitDy=0;entryX=0.5;entryY=0;entryDx=0;entryDy=0;" edge="1" parent="1" source="ZbQI2vLbvfMcdadeeipM-8" target="ZbQI2vLbvfMcdadeeipM-10">
          <mxGeometry width="50" height="50" relative="1" as="geometry">
            <mxPoint x="250" y="460" as="sourcePoint"/>
            <mxPoint x="300" y="410" as="targetPoint"/>
          </mxGeometry>
        </mxCell>
        <mxCell id="ZbQI2vLbvfMcdadeeipM-12" value="Player" style="rounded=1;whiteSpace=wrap;html=1;fillColor=#d5e8d4;strokeColor=#82b366;" vertex="1" parent="1">
          <mxGeometry x="490" y="290" width="60" height="60" as="geometry"/>
        </mxCell>
        <mxCell id="ZbQI2vLbvfMcdadeeipM-13" value="" style="endArrow=classic;html=1;exitX=0.85;exitY=0.05;exitDx=0;exitDy=0;exitPerimeter=0;entryX=0.5;entryY=1;entryDx=0;entryDy=0;" edge="1" parent="1" source="ZbQI2vLbvfMcdadeeipM-10" target="ZbQI2vLbvfMcdadeeipM-12">
          <mxGeometry width="50" height="50" relative="1" as="geometry">
            <mxPoint x="470" y="520" as="sourcePoint"/>
            <mxPoint x="520" y="470" as="targetPoint"/>
          </mxGeometry>
        </mxCell>
        <mxCell id="ZbQI2vLbvfMcdadeeipM-15" value="Test Server" style="rounded=1;whiteSpace=wrap;html=1;fillColor=#60a917;strokeColor=#2D7600;fontColor=#ffffff;" vertex="1" parent="1">
          <mxGeometry x="580" y="300" width="80" height="40" as="geometry"/>
        </mxCell>
        <mxCell id="ZbQI2vLbvfMcdadeeipM-16" value="Online DB" style="shape=cylinder;whiteSpace=wrap;html=1;boundedLbl=1;backgroundOutline=1;fillColor=#ffe6cc;strokeColor=#d79b00;" vertex="1" parent="1">
          <mxGeometry x="168.5" y="430" width="63" height="50" as="geometry"/>
        </mxCell>
        <mxCell id="ZbQI2vLbvfMcdadeeipM-17" value="" style="endArrow=classic;html=1;exitX=0.5;exitY=1;exitDx=0;exitDy=0;" edge="1" parent="1" source="ZbQI2vLbvfMcdadeeipM-3">
          <mxGeometry width="50" height="50" relative="1" as="geometry">
            <mxPoint x="150" y="520" as="sourcePoint"/>
            <mxPoint x="200" y="440" as="targetPoint"/>
          </mxGeometry>
        </mxCell>
        <mxCell id="ZbQI2vLbvfMcdadeeipM-18" value="Mock DB" style="shape=cylinder;whiteSpace=wrap;html=1;boundedLbl=1;backgroundOutline=1;fillColor=#ffe6cc;strokeColor=#d79b00;" vertex="1" parent="1">
          <mxGeometry x="588.5" y="375" width="63" height="50" as="geometry"/>
        </mxCell>
        <mxCell id="ZbQI2vLbvfMcdadeeipM-19" value="" style="endArrow=classic;html=1;exitX=0.5;exitY=1;exitDx=0;exitDy=0;entryX=0.5;entryY=0;entryDx=0;entryDy=0;" edge="1" parent="1" source="ZbQI2vLbvfMcdadeeipM-15" target="ZbQI2vLbvfMcdadeeipM-18">
          <mxGeometry width="50" height="50" relative="1" as="geometry">
            <mxPoint x="530" y="490" as="sourcePoint"/>
            <mxPoint x="580" y="440" as="targetPoint"/>
          </mxGeometry>
        </mxCell>
        <mxCell id="ZbQI2vLbvfMcdadeeipM-20" value="" style="endArrow=classic;html=1;exitX=1;exitY=0.5;exitDx=0;exitDy=0;entryX=0;entryY=0.5;entryDx=0;entryDy=0;" edge="1" parent="1" source="ZbQI2vLbvfMcdadeeipM-12" target="ZbQI2vLbvfMcdadeeipM-15">
          <mxGeometry width="50" height="50" relative="1" as="geometry">
            <mxPoint x="440" y="470" as="sourcePoint"/>
            <mxPoint x="490" y="420" as="targetPoint"/>
          </mxGeometry>
        </mxCell>
        <mxCell id="ZbQI2vLbvfMcdadeeipM-21" value="" style="endArrow=classic;html=1;exitX=1;exitY=0.5;exitDx=0;exitDy=0;" edge="1" parent="1" source="ZbQI2vLbvfMcdadeeipM-3">
          <mxGeometry width="50" height="50" relative="1" as="geometry">
            <mxPoint x="260" y="430" as="sourcePoint"/>
            <mxPoint x="280" y="390" as="targetPoint"/>
          </mxGeometry>
        </mxCell>
        <mxCell id="ZbQI2vLbvfMcdadeeipM-22" value="API Dependency" style="ellipse;whiteSpace=wrap;html=1;" vertex="1" parent="1">
          <mxGeometry x="280" y="370" width="90" height="40" as="geometry"/>
        </mxCell>
        <mxCell id="ZbQI2vLbvfMcdadeeipM-23" value="" style="endArrow=classic;html=1;exitX=0.5;exitY=0;exitDx=0;exitDy=0;entryX=0.5;entryY=1;entryDx=0;entryDy=0;" edge="1" parent="1" source="ZbQI2vLbvfMcdadeeipM-15" target="ZbQI2vLbvfMcdadeeipM-24">
          <mxGeometry width="50" height="50" relative="1" as="geometry">
            <mxPoint x="530" y="235" as="sourcePoint"/>
            <mxPoint x="570" y="235" as="targetPoint"/>
          </mxGeometry>
        </mxCell>
        <mxCell id="ZbQI2vLbvfMcdadeeipM-24" value="Mock Post API" style="ellipse;whiteSpace=wrap;html=1;fillColor=#d5e8d4;strokeColor=#82b366;" vertex="1" parent="1">
          <mxGeometry x="575" y="235" width="90" height="40" as="geometry"/>
        </mxCell>
        <mxCell id="ZbQI2vLbvfMcdadeeipM-25" value="" style="endArrow=none;dashed=1;html=1;" edge="1" parent="1">
          <mxGeometry width="50" height="50" relative="1" as="geometry">
            <mxPoint x="562" y="500" as="sourcePoint"/>
            <mxPoint x="562" y="190" as="targetPoint"/>
          </mxGeometry>
        </mxCell>
        <mxCell id="ZbQI2vLbvfMcdadeeipM-26" value="Offline Sync" style="endArrow=classic;html=1;exitX=1;exitY=0.7;exitDx=0;exitDy=0;entryX=0.5;entryY=1;entryDx=0;entryDy=0;" edge="1" parent="1" source="ZbQI2vLbvfMcdadeeipM-16" target="ZbQI2vLbvfMcdadeeipM-18">
          <mxGeometry width="50" height="50" relative="1" as="geometry">
            <mxPoint x="320" y="490" as="sourcePoint"/>
            <mxPoint x="370" y="440" as="targetPoint"/>
            <Array as="points">
              <mxPoint x="620" y="465"/>
            </Array>
          </mxGeometry>
        </mxCell>
        <mxCell id="ZbQI2vLbvfMcdadeeipM-27" value="清洗排序采样" style="rounded=1;whiteSpace=wrap;html=1;fillColor=#d5e8d4;strokeColor=#82b366;" vertex="1" parent="1">
          <mxGeometry x="396" y="230" width="80" height="40" as="geometry"/>
        </mxCell>
        <mxCell id="ZbQI2vLbvfMcdadeeipM-28" value="" style="endArrow=classic;html=1;exitX=0.5;exitY=1;exitDx=0;exitDy=0;entryX=0.5;entryY=0;entryDx=0;entryDy=0;" edge="1" parent="1" source="ZbQI2vLbvfMcdadeeipM-27" target="ZbQI2vLbvfMcdadeeipM-8">
          <mxGeometry width="50" height="50" relative="1" as="geometry">
            <mxPoint x="460" y="300" as="sourcePoint"/>
            <mxPoint x="510" y="250" as="targetPoint"/>
          </mxGeometry>
        </mxCell>
        <mxCell id="ZbQI2vLbvfMcdadeeipM-32" value="" style="endArrow=classic;html=1;exitX=0.25;exitY=1;exitDx=0;exitDy=0;entryX=0.5;entryY=1;entryDx=0;entryDy=0;" edge="1" parent="1" source="ZbQI2vLbvfMcdadeeipM-15" target="ZbQI2vLbvfMcdadeeipM-22">
          <mxGeometry width="50" height="50" relative="1" as="geometry">
            <mxPoint x="560" y="540" as="sourcePoint"/>
            <mxPoint x="520" y="440" as="targetPoint"/>
            <Array as="points">
              <mxPoint x="480" y="450"/>
            </Array>
          </mxGeometry>
        </mxCell>
        <mxCell id="ZbQI2vLbvfMcdadeeipM-33" value="GET API" style="text;html=1;resizable=0;points=[];align=center;verticalAlign=middle;labelBackgroundColor=#ffffff;" vertex="1" connectable="0" parent="ZbQI2vLbvfMcdadeeipM-32">
          <mxGeometry x="-0.2112" y="1" relative="1" as="geometry">
            <mxPoint as="offset"/>
          </mxGeometry>
        </mxCell>
      </root>
    </mxGraphModel>
  </diagram>
</mxfile>
